<svg xmlns="http://www.w3.org/2000/svg" width="600" height="600"><circle cx="-895" cy="-55.002" r="50" fill="#cac5c0" transform="matrix(6 0 0 6 5670 630.012)"/><path d="M211.836 111.81v302.634c0 35.988 15.402 53.988 46.158 53.988h7.83v20.52H104.628v-20.52h10.362c29.586 0 44.4-18 44.4-53.988v-198.48c0-36.48-12.93-54.738-38.802-54.738h-15.96v-20.544h6.096c31.428 0 59.814-9.624 85.146-28.878l15.966.007zm58.56 199.968c0-47.142 9.876-90.492 29.64-130.008 24.852-49.158 58.83-73.758 101.892-73.758 41.586 0 74.532 21.048 98.856 63.096 19.776 34.488 29.67 74.286 29.67 119.388 0 47.154-9.888 90.234-29.67 129.27-24.846 48.174-58.542 72.246-101.118 72.246-41.052 0-73.758-20.79-98.112-62.37-20.784-34.968-31.158-74.256-31.158-117.864zm54.732-22.056c0 40.08 4.308 76.056 12.936 107.976 13.182 49.17 34.71 73.77 64.626 73.77 48.666 0 72.99-50.682 72.99-152.076 0-125.214-26.364-187.806-79.092-187.806-47.646 0-71.472 48.63-71.472 145.968v12.168z" fill="#0d0f0f"/></svg>
