<svg xmlns="http://www.w3.org/2000/svg" width="600" height="600"><circle cx="-790" cy="-55.002" r="50" fill="#cac5c0" transform="matrix(6 0 0 6 5040 630.012)"/><path d="M238.987 109.932v305.04c0 36.294 15.095 54.42 45.216 54.42h7.673v20.694H129.39v-20.694h10.728c30.654 0 46.002-18.126 46.002-54.42v-200.04c0-36.798-13.038-55.17-39.108-55.17h-16.098v-20.694h6.145c31.68 0 60.281-9.702 85.823-29.13l16.105-.007zm194.693 0v305.04c0 36.294 15.067 54.42 45.222 54.42h7.668v20.694H324.054v-20.694h10.728c30.69 0 46.002-18.126 46.002-54.42v-200.04c0-36.798-13.038-55.17-39.078-55.17h-16.092v-20.694h6.115c31.679 0 60.281-9.702 85.86-29.13l16.091-.007z" fill="#0d0f0f"/></svg>
