<svg xmlns="http://www.w3.org/2000/svg" width="600" height="600"><circle cx="-685" cy="-55.002" r="50" fill="#cac5c0" transform="matrix(6 0 0 6 4410 630.012)"/><path d="M213.78 115.302v295.08c0 35.25 14.568 52.896 43.662 52.896h7.668v20.67H108v-20.67h9.198c29.628 0 44.436-17.646 44.436-52.896v-193.92c0-35.73-12.258-53.634-36.768-53.634h-16.092v-19.932h6.114c30.654 0 58.255-9.186 82.77-27.588l16.122-.007zm305.79 278.202l-26.826 91.218H268.17v-19.92c10.758-12.258 34.494-36.798 71.292-73.596 21.954-21.96 43.944-45.468 65.928-70.488 10.728-12.294 19.146-22.488 25.29-30.69 12.756-19.392 19.146-38.79 19.146-58.218 0-19.428-5.886-36.552-17.628-51.366-11.754-14.826-27.354-22.23-46.746-22.23-40.386 0-72.072 27.588-95.058 82.794l-19.926-7.674c27.606-76.65 70.512-114.984 128.766-114.984 28.602 0 53.142 9.726 73.572 29.13 20.424 19.428 30.654 43.686 30.654 72.822 0 37.29-21.204 73.572-63.588 108.846l-43.692 35.238c-28.128 23.52-51.366 45.75-69.768 66.666-1.524 1.572-4.086 4.374-7.638 8.46h117.264c17.874 0 31.152-3.342 39.858-9.984 8.67-6.612 16.596-18.642 23.736-36.024h19.938z" fill="#0d0f0f"/></svg>
