<svg xmlns="http://www.w3.org/2000/svg" width="600" height="600"><circle cx="-475" cy="-55.002" r="50" fill="#cac5c0" transform="matrix(6 0 0 6 3150 630.012)"/><path d="M217.848 116.838v294.318c0 34.734 14.562 52.104 43.656 52.104h6.924v19.932H112.056V463.26h9.978c29.628 0 44.442-17.37 44.442-52.104V218.01c0-35.274-12.54-52.896-37.554-52.896H113.58v-19.92h6.138c30.126 0 57.474-9.444 81.99-28.35l16.14-.007zM476.13 378.96v30.654c0 34.242 11.976 51.366 36.018 51.366h9.948v19.896H375.708V460.98h11.508c24.018 0 36.024-16.878 36.024-50.58v-31.44H276.072v-30.654l155.592-226.884h44.472V352.89h3.834c14.82 0 25.794-11.718 32.934-35.238H531.3l-9.198 61.314-45.972-.007zm-40.638-30.654V155.172L305.196 348.306h130.296z" fill="#0d0f0f"/></svg>
