<svg xmlns="http://www.w3.org/2000/svg" width="600" height="600"><path d="M600 299.988C600 465.678 465.678 600 299.988 600 134.31 600 0 465.678 0 299.988 0 134.31 134.31 0 299.988 0 465.678 0 600 134.31 600 299.988z" fill="#cac5c0"/><path d="M208.02 108.774v305.04c0 36.27 15.096 54.42 45.222 54.42h7.662v20.67H98.436v-20.67h10.722c30.654 0 45.996-18.15 45.996-54.42V213.75c0-36.774-13.032-55.17-39.108-55.17H99.954v-20.694h6.138c31.686 0 60.282-9.702 85.83-29.112h16.098zm107.31 7.638h138.726c17.904 0 28.626-2.016 32.214-6.12h19.932l-11.508 52.128H325.32l-16.092 75.096c23.988-9.702 45.468-14.568 64.374-14.568 36.798 0 67.83 12.294 93.12 36.81 25.29 24.504 37.92 55.158 37.92 91.968 0 42.912-16.338 77.388-49.02 103.476-30.69 24-67.746 36.024-111.15 36.024-25.548 0-50.58-3.846-75.096-11.508l7.638-19.146c20.424 5.604 38.58 8.412 54.42 8.412 31.686 0 59.412-10.452 83.166-31.404 23.766-20.952 35.616-47.04 35.616-78.186 0-27.072-8.79-49.314-26.412-66.678-17.646-17.37-39.726-26.064-66.306-26.064-25.032 0-48.27 8.694-69.75 26.064l-13.008-2.298 40.59-174.006z" fill="#0d0f0f"/></svg>
