<svg xmlns="http://www.w3.org/2000/svg" width="600" height="600"><circle cx="-265" cy="-55.002" r="50" fill="#cac5c0" transform="matrix(6 0 0 6 1890 630.012)"/><path d="M205.854 109.944v305.028c0 36.282 15.096 54.42 45.222 54.42h7.674v20.682H96.258v-20.682h10.734c30.654 0 46.008-18.138 46.008-54.42V214.908c0-36.762-13.044-55.158-39.12-55.158H97.788v-20.706h6.138c31.686 0 60.294-9.702 85.83-29.1h16.098zm120.348 164.754c28.104-26.532 56.448-39.858 85.08-39.858 30.654 0 55.416 12.294 74.346 36.81 17.37 22.476 26.04 49.83 26.04 82.008 0 34.746-10.218 65.154-30.654 91.194-22.476 29.13-50.58 43.686-84.294 43.686-39.858 0-72.036-17.37-96.588-52.104-21.456-30.654-32.19-66.936-32.19-108.846 0-44.94 12.258-86.226 36.81-123.786 24.504-37.548 57.48-64.242 98.862-80.088 22.98-8.706 47.532-13.044 73.572-13.044v19.932c-55.158 2.568-96.306 24.552-123.378 65.928-13.824 21.474-23.022 47.514-27.606 78.168zm-3.84 37.584c-.492 7.638-.774 15.318-.774 22.98 0 29.628 5.112 56.976 15.354 82.032 13.278 32.67 32.67 49.02 58.242 49.02 21.96 0 38.58-11.226 49.806-33.714 8.178-17.37 12.258-38.58 12.258-63.624 0-26.04-3.798-48.528-11.472-67.416-11.262-25.572-28.374-38.334-51.366-38.334-28.104 0-52.116 16.35-72.048 49.056z" fill="#0d0f0f"/></svg>
