<svg xmlns="http://www.w3.org/2000/svg" width="600" height="600"><circle cx="-55" cy="-55.002" r="50" fill="#cac5c0" transform="matrix(6 0 0 6 630 630.012)"/><path d="M215.85 115.296v296.616c0 35.274 14.568 52.89 43.686 52.89h7.674v19.926H109.314v-19.926h9.984c30.126 0 45.222-17.622 45.222-52.89V217.248c0-35.772-12.798-53.634-38.334-53.634h-15.342v-19.932h6.138c30.654 0 58.254-9.444 82.77-28.374h16.098v-.01zm135.654 182.406l-7.662-6.114c-24.012-16.344-39.858-29.376-47.496-39.078-9.198-12.786-13.818-27.6-13.818-44.472 0-28.098 12-51.084 36.012-68.982 21.456-16.842 47.04-25.296 76.662-25.296 27.6 0 52.116 7.17 73.572 21.456 23.508 16.374 35.274 38.082 35.274 65.148 0 32.712-22.488 59.034-67.464 78.96 51.624 25.044 77.412 60.036 77.412 105.006 0 32.184-12.516 57.726-37.56 76.626-21.444 16.878-48.798 25.29-82.02 25.29-31.674 0-58.746-7.92-81.234-23.766-26.04-17.868-39.084-41.628-39.084-71.256 0-30.156 14.04-54.672 42.162-73.608 7.152-5.064 18.906-11.712 35.244-19.914zm21.456 8.454c-37.29 17.37-55.944 44.436-55.944 81.24 0 23.514 7.674 42.54 22.98 57.102 15.354 14.568 34.5 21.834 57.516 21.834 21.456 0 39.576-5.736 54.42-17.244 14.814-11.478 22.206-27.444 22.206-47.904 0-31.152-19.932-56.196-59.79-75.096l-41.388-19.932zm42.162-36.798c33.222-14.814 49.806-36.768 49.806-65.892 0-19.926-7.008-36.024-21.048-48.312-14.064-12.258-31.314-18.372-51.738-18.372-16.878 0-31.932 4.836-45.222 14.532-13.314 9.732-19.92 23.022-19.92 39.864 0 20.454 9.444 36.798 28.35 49.056 4.08 2.556 20.952 10.728 50.58 24.546l9.192 4.578z" fill="#0d0f0f"/></svg>
