<svg xmlns="http://www.w3.org/2000/svg" width="600" height="600"><circle cx="-895" cy="49.998" r="50" fill="#cac5c0" transform="matrix(6 0 0 6 5670 .012)"/><path d="M319.464 379.608l-26.826 89.67H71.892V450.87c10.734-12.246 34.5-36.516 71.298-72.786 21.456-21.96 42.912-44.976 64.374-68.988 11.226-12.252 19.428-22.734 24.54-31.44C245.358 259.26 252 240.108 252 220.188c0-18.396-5.988-34.878-17.988-49.428-12.012-14.568-27.234-21.834-45.6-21.834-39.857 0-71.04 27.072-93.528 81.246l-20.682-7.674C101.274 146.364 143.694 108.3 201.42 108.3c28.627 0 53.016 9.69 73.194 29.124 20.202 19.428 30.282 43.44 30.282 72.036 0 36.306-21.21 71.79-63.624 106.536L198.36 352.02c-27.6 23.52-50.334 45.222-68.202 65.142-1.536 1.032-4.092 4.092-7.674 9.21h114.984c17.874 0 31.404-3.852 40.608-11.508 7.674-6.126 15.342-17.88 22.98-35.25h18.408v-.007zm-3.06-80.484c0-44.448 9.198-85.584 27.6-123.378 24.012-47.004 56.448-70.524 97.338-70.524 39.33 0 70.758 20.178 94.278 60.54 18.366 32.718 27.564 70.512 27.564 113.424 0 44.97-9.198 85.866-27.564 122.664-24.048 45.954-56.238 68.946-96.588 68.946-38.826 0-70.02-19.644-93.504-59.016-19.428-33.204-29.124-70.752-29.124-112.656zm52.116-20.688c0 38.334 4.08 72.576 12.258 102.696 12.246 47.04 32.707 70.524 61.314 70.524 46.488 0 69.762-48.282 69.762-144.876 0-119.568-25.302-179.346-75.876-179.346-44.976 0-67.452 46.488-67.452 139.488v11.514z" fill="#0d0f0f"/></svg>
