<svg xmlns="http://www.w3.org/2000/svg" width="600" height="600"><circle cx="300" cy="300" r="300" fill="#ccc"/><path d="M147.422 272.9h60.219c23.985 0 31.13-1.531 39.295-28.068l20.413-.51-18.372 63.28H103.534l-.51-17.351c109.21-106.659 111.251-122.479 112.272-138.299 2.551-34.702-22.455-45.93-35.723-45.93-13.269 0-35.213 8.676-56.646 52.564l-18.882-8.165c28.578-80.121 76.549-76.549 91.858-76.038 37.764 1.02 62.26 36.743 61.24 66.852-1.021 40.826-18.883 46.95-109.72 131.665z"/><path d="M512.094 87.817C566.406 142.123 600 217.124 600 299.979 600 465.677 465.684 600 299.994 600c-82.836 0-157.83-33.576-212.124-87.877" fill="#a59793"/><path d="M537.72 395.938c0 16.206-5.892 27.264-17.682 33.15-3.444 1.722-14.244 4.068-32.424 6.996-11.778 1.98-17.676 6.516-17.676 13.626v29.839c0 1.254.38 5.052 1.104 11.43l1.11 11.796c0 3.678-.864 9.702-2.586 18.048-4.662.978-10.068 2.088-16.206 3.33-1.968-7.38-2.946-12.414-2.946-15.12 0-1.218.302-3.072.918-5.526.612-2.448.924-4.296.924-5.532 0-1.704-1.518-6.498-4.572-14.364h-5.718c-.756 1.23-1.002 2.826-.762 4.782.984 4.182 1.35 7.734 1.11 10.686-4.182 2.946-9.942 6.876-17.31 11.79-1.734-.492-2.334-.738-1.848-.738v-26.154c-.486-1.218-1.71-1.71-3.684-1.476h-4.422l-4.422 34.626c-3.438.246-7.608.246-12.516 0-1.722-8.106-4.794-20.124-9.21-36.102h-2.958c-2.7 8.598-4.17 13.266-4.422 14.004 0 .978.312 2.874.93 5.706.606 2.832.918 4.722.918 5.706 0 .732-.251 2.58-.75 5.526l-1.104 8.85c-.498.474-1.098.72-1.836.72-7.368 0-12.288-1.842-14.73-5.514-2.472-3.69-3.456-8.85-2.958-15.48l2.958-44.19c0-.738.235-1.722.726-2.953.492-1.218.738-2.088.738-2.568 0-1.968-2.088-5.904-6.258-11.808-.738-.24-4.542-1.11-11.424-2.586-4.17-.972-12.402-2.694-24.672-5.142-16.95-3.186-25.428-16.818-25.428-40.884 0-35.869 14.742-65.695 44.202-89.521 1.224 6.636 3.324 15.468 6.27 26.52 2.208.504 7.002 1.614 14.364 3.324 1.482.486 8.964 3.192 22.47 8.106-6.87-4.17-15.84-10.908-26.88-20.25-4.182-4.908-6.276-13.146-6.276-24.678 0-2.718 4.668-5.892 14.01-9.6 8.346-3.432 14.604-5.376 18.786-5.88 13.254-1.71 23.448-2.58 30.576-2.58 30.69 0 55.5 7.866 74.406 23.592-6.132 7.128-16.698 14.718-31.674 22.836 5.892.246 14.49-2.082 25.788-7.008 11.292-4.89 16.08-7.368 14.364-7.368 1.962 0 5.898 3.936 11.79 11.79 4.41 5.892 7.974 11.178 10.68 15.84 7.86 13.998 13.14 29.119 15.846 45.313 0 5.652.122 9.702.368 12.15v2.94zm-141.096 6.648c0-10.566-4.602-20.574-13.806-30.036-9.216-9.456-19.11-14.178-29.664-14.178-9.33 0-17.55 3.96-24.678 11.868-7.122 7.914-10.68 16.692-10.68 26.34 0 8.4 4.05 13.854 12.156 16.314 5.16 1.488 12.396 2.352 21.726 2.604h20.262c16.458.21 24.684-4.092 24.684-12.912zm40.158 45.672v-11.406a371.278 371.278 0 01-5.148-9.96c-1.476-4.902-4.182-11.778-8.106-20.634l-4.056 43.104c0 3.456-.732 5.167-2.214 5.167-.978 0-1.722-.24-2.208-.739-1.722-26.028-2.574-37.332-2.574-33.876v-12.888c-.498-.756-1.11-1.128-1.848-1.128-8.346 8.622-12.516 22.488-12.516 41.628 0 10.567.978 17.07 2.94 19.543 1.974-.498 4.17-1.362 6.642-2.586.978-.498 3.798-.738 8.466-.738 4.65 0 10.32 1.47 16.938 4.41 2.46-.017 3.684-6.63 3.684-19.897zm83.256-51.336c0-9.876-3.684-18.714-11.052-26.508-7.368-7.782-15.84-11.67-25.404-11.67-10.32 0-19.968 4.722-28.926 14.166-8.97 9.456-13.452 19.344-13.452 29.67 0 8.592 4.182 12.882 12.528 12.882h42.354c15.972-.24 23.952-6.408 23.952-18.54z"/></svg>
