<svg xmlns="http://www.w3.org/2000/svg" width="600" height="600"><circle cx="300" cy="300" r="300" fill="#cbc2bf"/><path d="M147.422 272.9h60.219c23.985 0 31.13-1.531 39.295-28.068l20.413-.51-18.372 63.28H103.534l-.51-17.351c109.21-106.659 111.251-122.479 112.272-138.299 2.551-34.702-22.455-45.93-35.723-45.93-13.269 0-35.213 8.676-56.646 52.564l-18.882-8.165c28.578-80.121 76.549-76.549 91.858-76.038 37.764 1.02 62.26 36.743 61.24 66.852-1.021 40.826-18.883 46.95-109.72 131.665z" fill="#130c0e"/><path d="M512.094 87.817C566.406 142.123 600 217.124 600 299.979 600 465.677 465.678 600 300 600c-82.842 0-157.83-33.576-212.124-87.877" fill="#a3c095"/><path d="M537.108 405.706c0 4.548-1.758 8.622-5.274 12.258-3.516 3.624-7.542 5.43-12.09 5.43-7.248 0-12.588-3.396-15.978-10.206l-16.002-.672c-3.408 0-10.104 1.476-20.076 4.422-10.662 2.94-16.788 5.328-18.378 7.134-2.49 2.73-4.53 9.084-6.126 19.068-1.368 8.166-2.034 14.179-2.034 18.037 0 6.12.96 10.608 2.886 13.44 1.926 2.838 5.904 5.214 11.904 7.134 6 1.908 9.696 3.012 11.064 3.234.906 0 2.376-.108 4.422-.342h4.086c2.946 0 6.012.456 9.198 1.362 4.53 1.362 6.468 3.162 5.79 5.442-3.186-.444-8.736.228-16.674 2.04l9.516 4.77c0 2.724-3.852 4.074-11.568 4.074-2.052 0-4.83-.432-8.334-1.35-3.522-.924-5.85-1.374-6.978-1.374h-4.422c-.234 2.274-.906 5.658-2.04 10.206-3.87-.222-8.4-2.496-13.62-6.798-5.22-4.32-8.508-6.474-9.858-6.474-1.368 0-3.3 2.154-5.79 6.474-2.502 4.302-3.75 7.242-3.75 8.85-2.946-1.608-5.43-4.548-7.494-8.85a137.34 137.34 0 00-3.054-8.874c-2.268.234-6.462 5.016-12.588 14.31h-1.704c-.462-.678-2.166-5.436-5.118-14.31-7.032-2.25-13.602-3.378-19.728-3.378-2.946 0-7.494.672-13.626 2.046l-9.516-.678c1.35-1.368 5.328-3.972 11.904-7.83 7.71-4.548 13.614-6.822 17.694-6.822.672 0 1.578.126 2.724.354 1.128.234 2.04.348 2.724.348 1.572 0 4.14-.852 7.656-2.562 3.516-1.698 5.556-3.234 6.108-4.596.588-1.374.87-4.878.87-10.554 0-12.918-3.408-22.578-10.218-28.914-5.904-5.67-15.648-9.75-29.256-12.258-3.63 12.924-13.842 19.404-30.624 19.404-5.454 0-10.89-3.294-16.338-9.876-5.43-6.588-8.166-12.595-8.166-18.037 0-8.4 3.516-15.312 10.548-20.76-5.664-5.886-8.502-11.898-8.502-18.036 0-5.664 1.752-10.656 5.274-14.976 3.516-4.296 8.118-6.798 13.776-7.488-.444-7.248 1.926-12.252 7.146-14.97-2.496-2.484-3.738-6.9-3.738-13.266 0-7.477 2.49-13.723 7.488-18.715 4.98-4.98 11.232-7.488 18.702-7.488 8.178 0 14.874 2.85 20.082 8.508 6.588-22.452 20.754-33.678 42.534-33.678 11.34 0 21.324 4.536 29.946 13.62 3.18 3.39 4.758 5.208 4.758 5.43-2.718 0-1.35-.516 4.086-1.524 5.448-1.026 9.408-1.542 11.91-1.542 8.844 0 16.674 3.3 23.49 9.876 5.898 5.904 9.984 13.374 12.252 22.453 1.584.234 4.074.906 7.476 2.046 4.992 2.502 7.494 6.81 7.494 12.93 0 1.128-.912 3.294-2.724 6.474 14.514 8.166 21.774 19.506 21.774 34.02 0 4.092-1.59 9.762-4.758 17.016 5.916 3.414 8.862 8.406 8.862 14.988zm-140.196 14.97v-4.416c0-5.214-2.55-9.984-7.65-14.292-5.106-4.32-10.26-6.462-15.486-6.462-6.36 0-12.252 1.476-17.694 4.404 12.018-.66 25.632 6.246 40.83 20.766zm-6.126-42.18c-3.402-3.876-6.348-7.836-8.844-11.91-9.534 2.484-14.292 5.334-14.292 8.496 2.718-.222 6.696.282 11.904 1.536s8.964 1.878 11.232 1.878zm20.772-10.566v-14.97c-5.46-.894-8.754-1.357-9.876-1.357v5.107l9.876 11.22zm44.232-9.516c-2.73-1.134-7.83-3.408-15.324-6.81v29.262c10.668-6.132 15.768-13.608 15.324-22.452zm18.696 40.152l-7.476-9.174c-4.524 3.174-9.126 6.396-13.788 9.69-4.65 3.282-8.676 6.972-12.066 11.064 10.194-5.466 21.33-9.306 33.33-11.58z" fill="#00160b"/></svg>