<svg xmlns="http://www.w3.org/2000/svg" width="600" height="600"><circle cx="300" cy="300" r="300" fill="#cbc2bf"/><path d="M147.422 272.9h60.219c23.985 0 31.13-1.531 39.295-28.068l20.413-.51-18.372 63.28H103.534l-.51-17.351c109.21-106.659 111.251-122.479 112.272-138.299 2.551-34.702-22.455-45.93-35.723-45.93-13.269 0-35.213 8.676-56.646 52.564l-18.882-8.165c28.578-80.121 76.549-76.549 91.858-76.038 37.764 1.02 62.26 36.743 61.24 66.852-1.021 40.826-18.883 46.95-109.72 131.665z" fill="#130c0e"/><path d="M512.094 87.817C566.406 142.123 600 217.124 600 299.979 600 465.677 465.678 600 300 600c-82.842 0-157.83-33.576-212.124-87.877" fill="#e49977"/><path d="M529.8 446.632c-10.308 24.595-30.78 36.87-61.44 36.87-5.622 0-11.712.703-18.264 2.125-9.834 2.094-14.748 5.028-14.748 8.778 0 1.158.816 2.508 2.46 4.044 1.632 1.524 3.048 2.28 4.218 2.28-5.862 0-1.884.168 11.922.522 13.818.354 22.482.534 25.998.534-20.364 11.922-54.42 17.418-102.174 16.5-15.684-.234-29.142-7.14-40.374-20.724-11.01-12.876-16.506-27.246-16.506-43.182 0-16.849 5.676-31.177 17.034-43.009 11.34-11.82 25.452-17.73 42.306-17.73 3.738 0 8.718.822 14.916 2.46 6.204 1.638 10.362 2.46 12.462 2.46 8.664 0 19.434-3.576 32.31-10.722 12.876-7.128 18.96-10.698 18.258-10.698-2.346 24.588-10.536 41.082-24.582 49.512-10.068 5.856-15.096 11.58-15.096 17.202 0 3.492 2.1 6.318 6.312 8.419 3.276 1.644 6.906 2.46 10.89 2.46 6.084 0 12.048-3.745 17.904-11.239 5.844-7.494 8.418-14.274 7.716-20.376-.696-7.02-.222-15.438 1.41-25.278.462-2.814 2.166-6.258 5.088-10.362 2.928-4.104 5.568-6.612 7.902-7.548 0 2.1-.762 5.616-2.28 10.53-1.524 4.914-2.28 8.562-2.28 10.878 0 5.148 1.404 9.126 4.218 11.94 4.206-1.638 7.944-6.912 11.232-15.804 2.808-6.786 4.44-13.344 4.92-19.656-9.84-.468-19.266-4.908-28.266-13.344-9.006-8.43-13.512-17.563-13.512-27.379 0-1.638.222-3.282.702-4.92 1.392 2.112 3.498 5.388 6.318 9.834 3.972 5.862 7.02 8.772 9.126 8.772 2.808 0 4.212-2.91 4.212-8.772 0-7.488-1.992-14.28-5.97-20.37-4.458-7.254-10.194-10.878-17.202-10.878-3.288 0-8.196 1.746-14.748 5.262-6.558 3.498-12.528 5.262-17.898 5.262-1.638 0-8.904-2.112-21.774-6.324 22.698-3.732 34.056-7.128 34.056-10.176 0-7.944-15.564-13.344-46.698-16.146-3.048-.222-8.658-.696-16.854-1.404.93-1.158 7.608-2.448 20.016-3.87 10.53-1.152 17.898-1.746 22.11-1.746 55.71 0 91.05 27.048 106.038 81.127 2.586-2.136 3.87-5.712 3.87-10.68 0-6.42-1.872-14.485-5.622-24.21-1.41-3.799-3.642-9.493-6.678-17.083 19.188 24.45 28.8 47.629 28.8 69.505 0 11.526-2.706 21.984-8.088 31.386-3.498 6.342-10.068 14.448-19.656 24.348-9.6 9.876-16.146 17.52-19.662 22.92 12.876-3.497 21.306-6.204 25.284-8.082 8.886-3.972 16.968-9.948 24.222-17.892 0 3.03-1.29 7.608-3.858 13.674zM376.716 308.655c0 4.206-2.346 6.888-7.02 8.076l-9.126 1.392c-3.282 1.632-8.082 8.088-14.388 19.32-.714-3.51-1.758-8.412-3.168-14.748-2.106.234-5.61 2.106-10.53 5.628-2.106 1.626-5.502 4.104-10.194 7.374 1.41-8.424 6.102-16.956 14.052-25.626 8.424-9.606 16.62-14.388 24.576-14.388 10.53-.024 15.798 4.314 15.798 12.972zm61.092 32.304c0 3.978-2.166 7.314-6.498 10.002-4.332 2.695-8.604 4.045-12.81 4.045-5.628 0-10.662-3.163-15.102-9.48-5.388-7.723-10.884-12.75-16.5-15.109 1.164-1.158 2.574-1.758 4.224-1.758 2.094 0 5.664 1.638 10.698 4.908 5.022 3.294 8.25 4.914 9.66 4.914 1.17 0 3.096-1.626 5.784-4.914 2.688-3.27 5.676-4.908 8.958-4.908 7.728 0 11.586 4.116 11.586 12.3z" fill="#200000"/></svg>
