<svg xmlns="http://www.w3.org/2000/svg" width="600" height="600"><circle cx="300" cy="300" r="300" fill="#cbc2bf"/><path d="M147.422 272.9h60.219c23.985 0 31.13-1.531 39.295-28.068l20.413-.51-18.372 63.28H103.534l-.51-17.351c109.21-106.659 111.251-122.479 112.272-138.299 2.551-34.702-22.455-45.93-35.723-45.93-13.269 0-35.213 8.676-56.646 52.564l-18.882-8.165c28.578-80.121 76.549-76.549 91.858-76.038 37.764 1.02 62.26 36.743 61.24 66.852-1.021 40.826-18.883 46.95-109.72 131.665z" fill="#130c0e"/><path d="M512.094 87.817C566.406 142.123 600 217.124 600 299.979 600 465.677 465.684 600 299.994 600c-82.836 0-157.83-33.576-212.124-87.877" fill="#c1d7e9"/><path d="M460.332 502.049c-16.152 16.434-36.048 24.648-59.682 24.648-26.532 0-47.574-9.084-63.144-27.24-14.712-17.304-22.056-39.348-22.056-66.169 0-28.824 12.54-61.686 37.626-98.605 20.46-30.282 44.538-56.802 72.222-79.585-4.038 18.457-6.06 31.573-6.06 39.367 0 17.88 5.622 35.316 16.866 52.326 13.842 20.19 24.366 35.185 31.572 44.977 11.244 17.01 16.866 33.6 16.866 49.734 0 23.94-8.064 44.125-24.21 60.547zm-.432-92.329c-4.326-9.654-9.372-16.08-15.138-19.248.87 1.728 1.29 4.188 1.29 7.356 0 6.06-1.722 14.718-5.178 25.944l-5.628 17.31c0 10.08 5.034 15.133 15.132 15.133 10.662 0 16.008-7.063 16.008-21.193 0-7.206-2.16-15.648-6.486-25.302z" fill="#061922"/></svg>
