<svg xmlns="http://www.w3.org/2000/svg" width="600" height="600"><circle cx="300" cy="300" r="300" fill="#cbc2bf"/><path d="M147.422 272.9h60.219c23.985 0 31.13-1.531 39.295-28.068l20.413-.51-18.372 63.28H103.534l-.51-17.351c109.21-106.659 111.251-122.479 112.272-138.299 2.551-34.702-22.455-45.93-35.723-45.93-13.269 0-35.213 8.676-56.646 52.564l-18.882-8.165c28.578-80.121 76.549-76.549 91.858-76.038 37.764 1.02 62.26 36.743 61.24 66.852-1.021 40.826-18.883 46.95-109.72 131.665z" fill="#130c0e"/><path d="M512.094 87.817C566.406 142.123 600 217.124 600 299.979 600 465.677 465.684 600 299.994 600c-82.836 0-157.83-33.576-212.124-87.877" fill="#f8f6d8"/><path d="M528 438.664c-14.616-13.584-24.324-20.946-29.082-22.092-3.462-.828-6.81 1.188-10.032 6.036-3.222 4.848-7.752 6.552-13.614 5.148-2.376-.57-7.05-2.61-13.998-6.102-5.628 5.31-8.646 8.826-9.06 10.548-.57 2.388.528 5.628 3.3 9.732 2.76 4.104 5.364 6.426 7.8 7.02 1.548.372 3.732.546 6.546.534 2.802-.007 4.662.096 5.556.306 2.664.624 2.814 5.826.468 15.588-2.22 9.312-7.812 23.112-16.758 41.353-.348-23.455-3.654-35.935-9.936-37.435-.87-.21-2.814.024-5.832.666-3.024.642-5.184.822-6.48.51-6.282-1.506-10.548-8.598-12.78-21.276-10.338-.87-16.542 3.036-18.618 11.694-1.038 4.356.144 8.298 3.534 11.856 3.384 3.552 4.944 5.874 4.698 6.96-1.398 5.868-12.126 12.798-32.13 20.839-10.662 4.332-18.036 7.368-22.128 9.132 3.948-3.168 8.214-7.536 12.756-13.092 5.178-6.343 8.232-11.437 9.174-15.355.516-2.154-1.254-5.802-5.298-10.884-4.056-5.094-5.556-9.804-4.518-14.13.876-3.684 3.258-7.914 7.158-12.72-2.04-3.918-5.004-6.36-8.916-7.29-8.664-2.082-13.668-.3-15.018 5.346.93-3.906.235-.978-2.094 8.772-1.5 7.2-7.776 9.48-18.828 6.846-8.454-2.028-22.176-7.374-41.184-16.044 23.892-.234 36.708-4.044 38.466-11.406-.19.876 0-1.848.576-8.118.738-6.924 6.96-11.862 18.654-14.79.432-10.429-3.558-16.663-12.018-18.679-1.296-.318-4.236 1.386-8.778 5.118-4.566 3.715-8.364 5.22-11.388 4.489-5.202-1.23-10.572-8.479-16.104-21.72-2.556-6.577-6.522-16.339-11.898-29.311 4.362 3.792 8.718 7.596 13.086 11.376 5.778 4.596 10.62 7.35 14.514 8.298 3.036.714 6.648-1.23 10.848-5.844 4.188-4.614 8.67-6.348 13.44-5.196.666.156 4.68 2.484 12.072 7.008 5.622-5.298 8.796-9.456 9.522-12.492.612-2.61-.238-5.964-2.58-10.074-2.334-4.122-4.812-6.474-7.416-7.11-1.08-.258-2.832-.342-5.262-.234-2.43.12-4.188.035-5.274-.222-3.894-.93-4.686-6.27-2.352-16.032.612-2.604 6.666-16.854 18.138-42.733-.996 3.18-1.038 9.6-.124 19.213 1.08 11.718 4.122 18.162 9.108 19.368.864.198 2.748-.03 5.67-.708 2.904-.678 5.118-.84 6.624-.468 4.98 1.182 8.424 4.992 10.332 11.4l2.778 9.924c4.542 1.104 8.724.384 12.534-2.136 3.816-2.526 6.276-6.066 7.362-10.614 1.134-4.77 0-8.874-3.408-12.33-3.42-3.456-4.974-5.832-4.65-7.128 1.086-4.554 10.074-10.53 26.97-17.94 13.554-5.91 22.254-9.217 26.094-9.907-12.324 10.35-19.194 18.42-20.586 24.283-.731 3.042.332 6.726 3.186 11.088 3.57 5.202 5.466 8.754 5.7 10.626.966 5.52-.876 12.282-5.55 20.34 4.866 5.52 8.814 8.628 11.862 9.372 6.264 1.5 10.188-1.008 11.748-7.5.158-.654.376-2.778.672-6.378.275-3.6.594-5.592.906-5.97 1.602-2.832 7.92-2.922 18.972-.27 6.936 1.656 20.875 7.05 41.832 16.188-5.082.162-12.696.39-22.854.726-9.294.516-14.328 2.406-15.12 5.652-.352 1.518-.444 4.248-.238 8.184.205 3.937.107 6.793-.315 8.527-.72 3.036-3.349 5.376-7.866 7.05l-12.936 5.154c1.476 5.388 2.52 8.628 3.186 9.69 1.554 3.126 4.152 5.124 7.842 6.012 2.604.624 5.532-1.08 8.79-5.124 3.251-4.032 7.272-5.478 12.035-4.332 5.857 1.392 11.167 8.388 15.943 20.988 2.67 7.062 6.858 17.808 12.576 32.226zm-67.65-36.114c3.312-13.878 1.104-27.12-6.648-39.738-7.752-12.619-18.564-20.599-32.424-23.917-14.088-3.366-27.444-1.23-40.032 6.42-12.588 7.626-20.682 18.463-24.27 32.497-3.54 13.818-1.26 27.024 6.846 39.624 8.094 12.588 19.08 20.55 32.952 23.868 14.73 3.522 28.188 1.644 40.35-5.64 12.168-7.29 19.908-18.336 23.226-33.114zm-4.878-1.176c-3.162 13.218-10.218 23.106-21.186 29.634-10.956 6.54-23.052 8.238-36.264 5.076-12.786-3.06-22.668-10.122-29.646-21.186-6.978-11.064-8.928-22.98-5.874-35.766 3.018-12.576 10.194-22.254 21.558-29.053 11.376-6.78 23.334-8.67 35.892-5.658 12.564 3 22.374 10.158 29.394 21.457 7.038 11.322 9.078 23.148 6.126 35.496z" fill="#211d15"/></svg>
