<svg xmlns="http://www.w3.org/2000/svg" width="600" height="600"><g transform="scale(5.99994 6)"><circle cx="50.001" cy="50" r="50" fill="#c9c4be"/><path fill="#0d0f0f" d="M25.001 93.303l8.504-4.094 4.338-.052 2.355-4.08 9.803 13.804 9.802-13.804 2.355 4.08 4.338.051 8.505 4.095.707-9.412 2.125-3.786-2.354-4.078 16.855-1.588-7.055-15.389h4.711l2.213-3.732L100 50l-7.797-5.319-2.213-3.731h-4.711l7.054-15.391-16.854-1.586 2.354-4.08-2.126-3.782L75 6.699l-8.504 4.093-4.338.051-2.355 4.079L50 1.118l-9.802 13.804-2.355-4.079-4.338-.051L25 6.699l-.707 9.412-2.125 3.782 2.355 4.08L7.667 25.56l7.055 15.39h-4.711l-2.213 3.732L0 50l7.797 5.318 2.214 3.732h4.711L7.668 74.441l16.855 1.586-2.355 4.078 2.125 3.784z"/><path fill="#fff" d="M68.609 86.282l3.507-2.024v-4.046l-3.507-2.024-13.521-25.25 28.629-.915 3.506 2.025 3.504-2.023v-4.049l-3.504-2.023-3.506 2.023-28.629-.913 13.523-25.25 3.506-2.024v-4.046l-3.506-2.024-3.504 2.023-.002 4.047-15.104 24.336-15.105-24.336-.001-4.048-3.503-2.023-3.507 2.025v4.046l3.506 2.024 13.522 25.25-28.628.913-3.507-2.023-3.503 2.022v4.048l3.503 2.024 3.507-2.024 28.628.915-13.523 25.25-3.505 2.023-.001 4.047 3.506 2.023 3.505-2.023v-4.047L50 55.875l15.105 24.336v4.048z"/><path fill="#fff" d="M57.051 22.393l-7.05 12.288-7.05-12.288 7.05-12.289zM29.617 30.09l7.117 12.25-14.167-.039-7.117-12.249zM22.566 57.697l14.167-.038-7.117 12.249-14.167.039zM42.949 77.607L50 65.318l7.05 12.289L50 89.896zM70.384 69.91l-7.116-12.25 14.166.039 7.117 12.248zM77.436 42.303l-14.168.038 7.117-12.249 14.166-.039z"/></g></svg>
