<svg xmlns="http://www.w3.org/2000/svg" viewBox="0 0 221 221"><g fill-rule="nonzero" fill="none"><circle fill="#CBC2BF" cx="110.5" cy="110.5" r="110.5"/><path d="M109.548 148.661v-24.82c15.423-1.796 27.552-7.074 36.387-15.834 8.834-8.76 13.252-20.065 13.252-33.916 0-6.364-.993-12.26-2.977-17.688-1.984-5.428-5.035-10.313-9.152-14.656-3.968-4.193-9.022-7.543-15.162-10.051-6.139-2.508-13.177-3.762-21.113-3.762-5.54 0-10.875.86-16.003 2.583-5.129 1.722-9.19 3.78-12.185 6.176-3.52 2.696-6.102 5.485-7.75 8.367-1.646 2.883-2.47 5.821-2.47 8.816 0 3.669.861 6.888 2.583 9.658 1.722 2.77 4.605 4.155 8.647 4.155 4.568 0 8.049-1.141 10.445-3.425 2.396-2.283 3.594-4.81 3.594-7.58 0-1.797-.319-4.38-.955-7.75a454.029 454.029 0 00-1.516-7.748c1.198-.899 3.088-1.853 5.671-2.864s5.597-1.516 9.04-1.516c9.135 0 16.08 2.994 20.833 8.984 4.755 5.99 7.132 14.6 7.132 25.83 0 7.038-1.067 12.522-3.201 16.453-2.134 3.93-5.11 7.28-8.928 10.051-3.669 2.62-7.824 4.51-12.466 5.671a85.764 85.764 0 01-14.038 2.303v42.563h10.332zm-4.83 44.585c4.193 0 7.806-1.479 10.838-4.436 3.032-2.957 4.548-6.532 4.548-10.725s-1.516-7.805-4.548-10.837c-3.032-3.033-6.645-4.549-10.837-4.549-4.193 0-7.805 1.516-10.838 4.549-3.032 3.032-4.548 6.644-4.548 10.837s1.516 7.768 4.548 10.725c3.033 2.957 6.645 4.436 10.838 4.436z" fill="#000"/></g></svg>
