<svg xmlns="http://www.w3.org/2000/svg" viewBox="0 0 600 600"><path d="M600 299.988C600 465.678 465.702 600 300 600 134.322 600 0 465.678 0 299.988 0 134.31 134.322 0 300 0c165.702 0 300 134.31 300 299.988z" fill="#cac5c0"/><path d="M339.846 480v-19.782c28.218-3.126 42.354-11.322 42.354-24.492 0-9.492-3.774-18.984-11.298-28.476l-78.048-96.06-61.638 72.666c-15.42 17.838-23.178 32.592-23.178 44.124 0 17.856 14.124 28.626 42.42 32.322V480H100.152v-19.722c19.032-3.654 35.202-10.512 48.612-20.496 9.234-7.338 21.822-20.226 37.71-38.628l92.694-107.49-107.202-129.96c-13.89-16.782-24.726-27.798-32.406-33.06-10.344-7.35-24.726-12.072-43.218-14.166V96h177.234v19.71c-26.718 5.262-40.056 13.404-40.056 24.444 0 7.38 3.564 15.516 10.758 24.432l70.896 85.932 57.048-70.146c10.266-12.624 15.42-23.646 15.42-33.12 0-15.774-12.63-26.04-37.806-30.774V96h141.072v19.746c-12.33 2.634-20.838 5.004-25.38 7.128-15.42 7.374-38.976 29.214-70.782 65.52-5.112 5.814-26.718 32.358-64.734 79.71l113.862 140.178c24.678 30.468 49.83 47.826 75.516 51.996V480H339.846z" fill="#0d0f0f"/></svg>
