<svg width="305" height="305" viewBox="0 0 305 305" fill="none" xmlns="http://www.w3.org/2000/svg">
<g clip-path="url(#clip0_67_182)">
<path d="M224.613 18.0967C272.467 43.826 305 94.3628 305 152.5C305 236.723 236.723 305 152.5 305C87.7199 305 32.3758 264.608 10.2744 207.636C14.3188 207.877 18.3951 208 22.5 208C130.107 208 218.109 124.067 224.613 18.0967Z" fill="#1B1B1B"/>
<path d="M152.5 0C174.71 0 195.811 4.74966 214.844 13.2861C210.758 115.991 126.207 198 22.5 198C17.1825 198 11.9155 197.783 6.70703 197.36C2.34798 183.177 0 168.113 0 152.5C0 68.2766 68.2766 0 152.5 0Z" fill="#BD8413"/>
</g>
<defs>
<clipPath id="clip0_67_182">
<rect width="305" height="305" fill="white"/>
</clipPath>
</defs>
</svg>
